# xmcd CD database file
#
# Track frame offsets:
#	150
#	19172
#	40955
#	59542
#	75955
#	93675
#	112787
#	132572
#	151355
#	170555
#	191395
#	209977
#	228412
#	246100
#	265257
#	285230
#
# Disc length: 4062 seconds
#
# Revision: 0
# Processed by: cddbd v1.5.1PL0 Copyright (c) Steve Scherf et al.
# Submitted via: CDex 1.50
#
DISCID=dd0fdc10
DTITLE=雅夢 - 雅夢 ベスト(ポプコン・スーパーセレクション)
DYEAR=2003
DGENRE=JPop
TTITLE0=愛はかげろう
TTITLE1=残秋から
TTITLE2=悲しくて
TTITLE3=夢で逢いたいから
TTITLE4=浮雲
TTITLE5=じゅてーむ
TTITLE6=秋時雨
TTITLE7=旅愁
TTITLE8=追いかけて
TTITLE9=風だより
TTITLE10=霧雨の旅人
TTITLE11=風の言葉
TTITLE12=夕映えよ心の鳩を抱け
TTITLE13=河にそって歩こうか
TTITLE14=辛口のゲーム
TTITLE15=壊れた夜
EXTD=YEAR: 2003
EXTT0=
EXTT1=
EXTT2=
EXTT3=
EXTT4=
EXTT5=
EXTT6=
EXTT7=
EXTT8=
EXTT9=
EXTT10=
EXTT11=
EXTT12=
EXTT13=
EXTT14=
EXTT15=
PLAYORDER=
